<svg width="17" height="15" viewBox="0 0 17 15" fill="none" xmlns="http://www.w3.org/2000/svg">
<path d="M8.66675 2.74805L7.95 2.01133C6.26565 0.280067 3.18089 0.877695 2.06711 3.05284C1.54328 4.07583 1.4255 5.55246 2.38104 7.43758C3.30132 9.25313 5.21442 11.4265 8.66675 13.7946C12.1191 11.4265 14.0322 9.25313 14.9525 7.43758C15.908 5.55246 15.7902 4.07583 15.2664 3.05284C14.1526 0.877695 11.0678 0.280067 9.3835 2.01133L8.66675 2.74805ZM8.66675 15C-6.66638 4.86841 3.94551 -3.04087 8.49107 1.14308C8.55069 1.19797 8.60928 1.25493 8.66675 1.314C8.72421 1.25494 8.7828 1.19797 8.84242 1.14309C13.388 -3.04088 23.9999 4.8684 8.66675 15Z" fill="#203AEC"/>
</svg>
